<svg width="20" height="20" viewBox="0 0 20 20" fill="none" xmlns="http://www.w3.org/2000/svg">
<path fill-rule="evenodd" clip-rule="evenodd" d="M10 2.00049C8.80368 2.00107 7.62273 2.26995 6.54408 2.78733C5.46543 3.30471 4.51655 4.05742 3.76729 4.99004C3.01803 5.92267 2.48747 7.01145 2.21468 8.17625C1.94188 9.34105 1.93379 10.5522 2.19101 11.7205C2.44822 12.8889 2.96419 13.9846 3.70093 14.9272C4.43766 15.8697 5.37641 16.635 6.44805 17.1668C7.5197 17.6985 8.69696 17.9832 9.89316 17.9997C11.0894 18.0163 12.274 17.7644 13.36 17.2625C13.6007 17.1508 13.8759 17.1394 14.125 17.2306C14.3741 17.3218 14.5768 17.5083 14.6885 17.749C14.8002 17.9897 14.8116 18.2649 14.7204 18.514C14.6292 18.7631 14.4427 18.9658 14.202 19.0775C12.8852 19.6874 11.4512 20.0024 10 20.0005C4.477 20.0005 0 15.5235 0 10.0005C0 4.47749 4.477 0.000488281 10 0.000488281C15.523 0.000488281 20 4.47749 20 10.0005V10.0195C19.958 12.2095 19.26 13.6845 18.233 14.5995C17.229 15.4935 16.04 15.7375 15.21 15.7375C14.018 15.7375 12.971 15.1175 12.372 14.1835C10.296 16.0185 7.302 16.4225 5.454 14.3685C3.528 12.2285 4.065 8.65549 6.12 6.37249C8.108 4.16349 11.723 3.31049 13.798 5.86649C13.888 5.62464 14.068 5.42695 14.3004 5.31476C14.5328 5.20256 14.7996 5.18455 15.045 5.26449C15.2903 5.34443 15.4953 5.51612 15.617 5.74368C15.7387 5.97123 15.7677 6.23703 15.698 6.48549C15.106 8.56149 14.408 10.6185 13.885 12.7125C13.9613 13.0059 14.1328 13.2656 14.3726 13.4511C14.6124 13.6366 14.9069 13.7373 15.21 13.7375C15.69 13.7375 16.358 13.5915 16.903 13.1065C17.423 12.6435 17.965 11.7525 18 9.99149C17.9976 7.87132 17.1537 5.8388 15.6537 4.34045C14.1536 2.84211 12.1202 2.00049 10 2.00049ZM12.353 10.9145C12.423 10.6745 12.606 10.0335 12.82 9.28649C13.053 8.46649 12.75 7.68049 12.112 6.97049C11.192 5.94949 9.22 5.91749 7.607 7.71049C5.984 9.51249 5.925 11.9015 6.941 13.0305C7.86 14.0515 9.832 14.0835 11.446 12.2905C11.819 11.8765 12.17 11.4465 12.353 10.9145Z" fill="#0fc684"/>
</svg>
