<svg width="80" height="80" viewBox="0 0 80 80" fill="none" xmlns="http://www.w3.org/2000/svg">
<path fill-rule="evenodd" clip-rule="evenodd" d="M6.6667 20C6.6667 16.4638 8.07146 13.0724 10.5719 10.5719C13.0724 8.07142 16.4638 6.66666 20 6.66666H60C63.5363 6.66666 66.9276 8.07142 69.4281 10.5719C71.9286 13.0724 73.3334 16.4638 73.3334 20V60C73.3334 63.5362 71.9286 66.9276 69.4281 69.4281C66.9276 71.9286 63.5363 73.3333 60 73.3333H20C16.4638 73.3333 13.0724 71.9286 10.5719 69.4281C8.07146 66.9276 6.6667 63.5362 6.6667 60V20ZM20 13.3333C18.2319 13.3333 16.5362 14.0357 15.286 15.286C14.0357 16.5362 13.3334 18.2319 13.3334 20V60C13.3334 61.7681 14.0357 63.4638 15.286 64.714C16.5362 65.9643 18.2319 66.6667 20 66.6667H40V43.3333H36.6667C35.7826 43.3333 34.9348 42.9821 34.3097 42.357C33.6846 41.7319 33.3334 40.8841 33.3334 40C33.3334 39.1159 33.6846 38.2681 34.3097 37.643C34.9348 37.0179 35.7826 36.6667 36.6667 36.6667H40V31.6667C40 28.5725 41.2292 25.605 43.4171 23.4171C45.6051 21.2292 48.5725 20 51.6667 20H53.6667C54.5508 20 55.3986 20.3512 56.0237 20.9763C56.6488 21.6014 57 22.4493 57 23.3333C57 24.2174 56.6488 25.0652 56.0237 25.6904C55.3986 26.3155 54.5508 26.6667 53.6667 26.6667H51.6667C51.0101 26.6667 50.3599 26.796 49.7533 27.0473C49.1467 27.2985 48.5955 27.6668 48.1312 28.1311C47.6669 28.5954 47.2986 29.1466 47.0473 29.7532C46.796 30.3599 46.6667 31.0101 46.6667 31.6667V36.6667H53.6667C54.5508 36.6667 55.3986 37.0179 56.0237 37.643C56.6488 38.2681 57 39.1159 57 40C57 40.8841 56.6488 41.7319 56.0237 42.357C55.3986 42.9821 54.5508 43.3333 53.6667 43.3333H46.6667V66.6667H60C61.7681 66.6667 63.4638 65.9643 64.7141 64.714C65.9643 63.4638 66.6667 61.7681 66.6667 60V20C66.6667 18.2319 65.9643 16.5362 64.7141 15.286C63.4638 14.0357 61.7681 13.3333 60 13.3333H20Z" fill="#0FC684"/>
</svg>
