<svg width="80" height="80" viewBox="0 0 80 80" fill="none" xmlns="http://www.w3.org/2000/svg">
<path fill-rule="evenodd" clip-rule="evenodd" d="M70 19.86C70.03 21.8833 69.7767 24.42 69.5533 26.27C69.4825 26.8812 69.3712 27.4869 69.22 28.0833C72.0733 33.3667 73.3333 39.7233 73.3333 46.6667C73.3333 54.8933 69.3767 61.67 63.2133 66.29C57.1067 70.8667 48.8667 73.3333 40 73.3333C31.1333 73.3333 22.8933 70.8667 16.7867 66.29C10.6233 61.67 6.66667 54.8933 6.66667 46.6667C6.66667 39.7233 7.92334 33.3667 10.7833 28.0833C10.6322 27.4869 10.5208 26.8812 10.45 26.27C10.22 24.42 9.96667 21.8833 10 19.86C10.0333 17.5833 10.3333 15.3067 10.6633 13.0467C10.8167 12 11.0567 11.0167 12.1933 10.3967C13.3533 9.76332 14.5733 9.99666 15.7767 10.34C19.8367 11.49 23.6433 13.1067 27.2233 15.04C31 13.91 35.26 13.3333 40 13.3333C44.74 13.3333 49 13.91 52.7733 15.0433C56.4036 13.0587 60.2426 11.4824 64.22 10.3433C65.4233 9.99999 66.6467 9.76332 67.8033 10.3967C68.9367 11.0167 69.18 12 69.3367 13.0467C69.6633 15.3067 69.9667 17.5833 70 19.86ZM66.6667 46.6667C66.6667 41.0433 65.3733 33.3333 58.3333 33.3333C55.16 33.3333 52.1567 34.1667 49.1567 35C46.16 35.8333 43.1667 36.6667 40 36.6667C36.8333 36.6667 33.84 35.8333 30.8433 35C27.8433 34.1667 24.8433 33.3333 21.6667 33.3333C14.6467 33.3333 13.3333 41.0667 13.3333 46.6667C13.3333 52.5467 16.09 57.4367 20.7867 60.9567C25.5333 64.52 32.3 66.6667 40 66.6667C47.7 66.6667 54.4633 64.5167 59.2133 60.9567C63.91 57.4333 66.6667 52.5467 66.6667 46.6667ZM33.3333 48.3333C33.3333 52.9333 31.0933 56.6667 28.3333 56.6667C25.5733 56.6667 23.3333 52.9333 23.3333 48.3333C23.3333 43.7333 25.5733 40 28.3333 40C31.0933 40 33.3333 43.7333 33.3333 48.3333ZM51.6667 56.6667C54.4267 56.6667 56.6667 52.9333 56.6667 48.3333C56.6667 43.7333 54.4267 40 51.6667 40C48.9067 40 46.6667 43.7333 46.6667 48.3333C46.6667 52.9333 48.9067 56.6667 51.6667 56.6667Z" fill="#0FC684"/>
</svg>
