<svg width="80" height="80" viewBox="0 0 80 80" fill="none" xmlns="http://www.w3.org/2000/svg">
<path fill-rule="evenodd" clip-rule="evenodd" d="M20 6.66666C16.4638 6.66666 13.0724 8.07141 10.5719 10.5719C8.07143 13.0724 6.66667 16.4638 6.66667 20V60C6.66667 63.5362 8.07143 66.9276 10.5719 69.4281C13.0724 71.9286 16.4638 73.3333 20 73.3333H60C63.5362 73.3333 66.9276 71.9286 69.4281 69.4281C71.9286 66.9276 73.3333 63.5362 73.3333 60V20C73.3333 16.4638 71.9286 13.0724 69.4281 10.5719C66.9276 8.07141 63.5362 6.66666 60 6.66666H20ZM13.3333 20C13.3333 18.2319 14.0357 16.5362 15.286 15.2859C16.5362 14.0357 18.2319 13.3333 20 13.3333H60C61.7681 13.3333 63.4638 14.0357 64.7141 15.2859C65.9643 16.5362 66.6667 18.2319 66.6667 20V60C66.6667 61.7681 65.9643 63.4638 64.7141 64.714C63.4638 65.9643 61.7681 66.6667 60 66.6667H20C18.2319 66.6667 16.5362 65.9643 15.286 64.714C14.0357 63.4638 13.3333 61.7681 13.3333 60V20ZM30 36.6667C30 35.7826 29.6488 34.9348 29.0237 34.3096C28.3986 33.6845 27.5507 33.3333 26.6667 33.3333C25.7826 33.3333 24.9348 33.6845 24.3097 34.3096C23.6845 34.9348 23.3333 35.7826 23.3333 36.6667V56.6667C23.3333 57.5507 23.6845 58.3986 24.3097 59.0237C24.9348 59.6488 25.7826 60 26.6667 60C27.5507 60 28.3986 59.6488 29.0237 59.0237C29.6488 58.3986 30 57.5507 30 56.6667V36.6667ZM31.6667 25C31.6667 26.3261 31.1399 27.5978 30.2022 28.5355C29.2645 29.4732 27.9928 30 26.6667 30C25.3406 30 24.0688 29.4732 23.1311 28.5355C22.1935 27.5978 21.6667 26.3261 21.6667 25C21.6667 23.6739 22.1935 22.4021 23.1311 21.4645C24.0688 20.5268 25.3406 20 26.6667 20C27.9928 20 29.2645 20.5268 30.2022 21.4645C31.1399 22.4021 31.6667 23.6739 31.6667 25V25ZM40 33.3333C41.1333 33.3333 42.1333 33.9 42.7333 34.76C44.4514 33.8237 46.3767 33.3332 48.3333 33.3333C55.5333 33.3333 60 39.7533 60 45.2367V56.6667C60 57.5507 59.6488 58.3986 59.0237 59.0237C58.3986 59.6488 57.5507 60 56.6667 60C55.7826 60 54.9348 59.6488 54.3096 59.0237C53.6845 58.3986 53.3333 57.5507 53.3333 56.6667V45.2333C53.3333 42.6733 51.1333 39.9967 48.3333 39.9967C46.5867 39.9967 44.6567 40.9467 43.3333 43.2067V56.6667C43.3333 57.5507 42.9822 58.3986 42.357 59.0237C41.7319 59.6488 40.8841 60 40 60C39.116 60 38.2681 59.6488 37.643 59.0237C37.0179 58.3986 36.6667 57.5507 36.6667 56.6667V36.6667C36.6667 35.7826 37.0179 34.9348 37.643 34.3096C38.2681 33.6845 39.116 33.3333 40 33.3333V33.3333Z" fill="#0FC684"/>
</svg>
