<svg width="961" height="53" viewBox="0 0 961 53" fill="none" xmlns="http://www.w3.org/2000/svg">
<path d="M51.84 52L51.768 21.76L36.936 46.672H31.68L16.92 22.408V52H5.976V1.6H15.624L34.488 32.92L53.064 1.6H62.64L62.784 52H51.84ZM97.1336 52.864C89.9336 52.864 84.3176 50.872 80.2856 46.888C76.3016 42.904 74.3096 37.216 74.3096 29.824V1.6H85.9736V29.392C85.9736 38.416 89.7176 42.928 97.2056 42.928C100.854 42.928 103.638 41.848 105.558 39.688C107.478 37.48 108.438 34.048 108.438 29.392V1.6H119.958V29.824C119.958 37.216 117.942 42.904 113.91 46.888C109.926 50.872 104.334 52.864 97.1336 52.864ZM177.708 1.6V52H166.044V31.336H143.148V52H131.484V1.6H143.148V21.472H166.044V1.6H177.708ZM222.824 41.2H199.424L194.96 52H183.008L205.472 1.6H216.992L239.528 52H227.288L222.824 41.2ZM219.152 32.344L211.16 13.048L203.168 32.344H219.152ZM290.621 52L290.549 21.76L275.717 46.672H270.461L255.701 22.408V52H244.757V1.6H254.405L273.269 32.92L291.845 1.6H301.421L301.565 52H290.621ZM359.387 52L359.315 21.76L344.483 46.672H339.227L324.467 22.408V52H313.523V1.6H323.171L342.035 32.92L360.611 1.6H370.187L370.331 52H359.387ZM421.312 42.64V52H382.289V1.6H420.377V10.96H393.881V21.904H417.281V30.976H393.881V42.64H421.312ZM430.593 1.6H453.489C458.961 1.6 463.785 2.656 467.961 4.768C472.185 6.832 475.449 9.76 477.753 13.552C480.105 17.344 481.281 21.76 481.281 26.8C481.281 31.84 480.105 36.256 477.753 40.048C475.449 43.84 472.185 46.792 467.961 48.904C463.785 50.968 458.961 52 453.489 52H430.593V1.6ZM452.913 42.424C457.953 42.424 461.961 41.032 464.937 38.248C467.961 35.416 469.473 31.6 469.473 26.8C469.473 22 467.961 18.208 464.937 15.424C461.961 12.592 457.953 11.176 452.913 11.176H442.257V42.424H452.913ZM527.028 52.864C523.044 52.864 519.18 52.336 515.436 51.28C511.74 50.176 508.764 48.76 506.508 47.032L510.468 38.248C512.628 39.832 515.196 41.104 518.172 42.064C521.148 43.024 524.124 43.504 527.1 43.504C530.412 43.504 532.86 43.024 534.444 42.064C536.028 41.056 536.82 39.736 536.82 38.104C536.82 36.904 536.34 35.92 535.38 35.152C534.468 34.336 533.268 33.688 531.78 33.208C530.34 32.728 528.372 32.2 525.876 31.624C522.036 30.712 518.892 29.8 516.444 28.888C513.996 27.976 511.884 26.512 510.108 24.496C508.38 22.48 507.516 19.792 507.516 16.432C507.516 13.504 508.308 10.864 509.892 8.512C511.476 6.112 513.852 4.216 517.02 2.824C520.236 1.432 524.148 0.735999 528.756 0.735999C531.972 0.735999 535.116 1.12 538.188 1.888C541.26 2.656 543.948 3.76 546.252 5.2L542.652 14.056C537.996 11.416 533.34 10.096 528.684 10.096C525.42 10.096 522.996 10.624 521.412 11.68C519.876 12.736 519.108 14.128 519.108 15.856C519.108 17.584 519.996 18.88 521.772 19.744C523.596 20.56 526.356 21.376 530.052 22.192C533.892 23.104 537.036 24.016 539.484 24.928C541.932 25.84 544.02 27.28 545.748 29.248C547.524 31.216 548.412 33.88 548.412 37.24C548.412 40.12 547.596 42.76 545.964 45.16C544.38 47.512 541.98 49.384 538.764 50.776C535.548 52.168 531.636 52.864 527.028 52.864ZM602.606 1.6V52H590.942V31.336H568.046V52H556.382V1.6H568.046V21.472H590.942V1.6H602.606ZM647.723 41.2H624.323L619.859 52H607.907L630.371 1.6H641.891L664.427 52H652.187L647.723 41.2ZM644.051 32.344L636.059 13.048L628.067 32.344H644.051ZM688.016 32.2L681.248 39.256V52H669.656V1.6H681.248V25.144L703.568 1.6H716.528L695.648 24.064L717.752 52H704.144L688.016 32.2ZM722.953 1.6H734.617V52H722.953V1.6ZM778.69 52L768.97 37.96H768.394H758.242V52H746.578V1.6H768.394C772.858 1.6 776.722 2.344 779.986 3.832C783.298 5.32 785.842 7.432 787.618 10.168C789.394 12.904 790.282 16.144 790.282 19.888C790.282 23.632 789.37 26.872 787.546 29.608C785.77 32.296 783.226 34.36 779.914 35.8L791.218 52H778.69ZM778.474 19.888C778.474 17.056 777.562 14.896 775.738 13.408C773.914 11.872 771.25 11.104 767.746 11.104H758.242V28.672H767.746C771.25 28.672 773.914 27.904 775.738 26.368C777.562 24.832 778.474 22.672 778.474 19.888ZM862.877 52.864C857.741 52.864 853.085 51.76 848.909 49.552C844.781 47.296 841.517 44.2 839.117 40.264C836.765 36.28 835.589 31.792 835.589 26.8C835.589 21.808 836.765 17.344 839.117 13.408C841.517 9.424 844.781 6.328 848.909 4.12C853.085 1.864 857.765 0.735999 862.949 0.735999C867.317 0.735999 871.253 1.504 874.757 3.04C878.309 4.576 881.285 6.784 883.685 9.664L876.197 16.576C872.789 12.64 868.565 10.672 863.525 10.672C860.405 10.672 857.621 11.368 855.173 12.76C852.725 14.104 850.805 16 849.413 18.448C848.069 20.896 847.397 23.68 847.397 26.8C847.397 29.92 848.069 32.704 849.413 35.152C850.805 37.6 852.725 39.52 855.173 40.912C857.621 42.256 860.405 42.928 863.525 42.928C868.565 42.928 872.789 40.936 876.197 36.952L883.685 43.864C881.285 46.792 878.309 49.024 874.757 50.56C871.205 52.096 867.245 52.864 862.877 52.864ZM930.313 32.2L923.545 39.256V52H911.953V1.6H923.545V25.144L945.865 1.6H958.825L937.945 24.064L960.049 52H946.441L930.313 32.2Z" fill="white"/>
<path d="M802.979 52.576C801.011 52.576 799.355 51.904 798.011 50.56C796.667 49.216 795.995 47.536 795.995 45.52C795.995 43.456 796.667 41.8 798.011 40.552C799.355 39.256 801.011 38.608 802.979 38.608C804.947 38.608 806.603 39.256 807.947 40.552C809.291 41.8 809.963 43.456 809.963 45.52C809.963 47.536 809.291 49.216 807.947 50.56C806.603 51.904 804.947 52.576 802.979 52.576Z" fill="#0FC684"/>
<mask id="mask0" mask-type="alpha" maskUnits="userSpaceOnUse" x="5" y="0" width="956" height="53">
<path d="M51.84 52L51.768 21.76L36.936 46.672H31.68L16.92 22.408V52H5.976V1.6H15.624L34.488 32.92L53.064 1.6H62.64L62.784 52H51.84ZM97.1336 52.864C89.9336 52.864 84.3176 50.872 80.2856 46.888C76.3016 42.904 74.3096 37.216 74.3096 29.824V1.6H85.9736V29.392C85.9736 38.416 89.7176 42.928 97.2056 42.928C100.854 42.928 103.638 41.848 105.558 39.688C107.478 37.48 108.438 34.048 108.438 29.392V1.6H119.958V29.824C119.958 37.216 117.942 42.904 113.91 46.888C109.926 50.872 104.334 52.864 97.1336 52.864ZM177.708 1.6V52H166.044V31.336H143.148V52H131.484V1.6H143.148V21.472H166.044V1.6H177.708ZM222.824 41.2H199.424L194.96 52H183.008L205.472 1.6H216.992L239.528 52H227.288L222.824 41.2ZM219.152 32.344L211.16 13.048L203.168 32.344H219.152ZM290.621 52L290.549 21.76L275.717 46.672H270.461L255.701 22.408V52H244.757V1.6H254.405L273.269 32.92L291.845 1.6H301.421L301.565 52H290.621ZM359.387 52L359.315 21.76L344.483 46.672H339.227L324.467 22.408V52H313.523V1.6H323.171L342.035 32.92L360.611 1.6H370.187L370.331 52H359.387ZM421.312 42.64V52H382.289V1.6H420.377V10.96H393.881V21.904H417.281V30.976H393.881V42.64H421.312ZM430.593 1.6H453.489C458.961 1.6 463.785 2.656 467.961 4.768C472.185 6.832 475.449 9.76 477.753 13.552C480.105 17.344 481.281 21.76 481.281 26.8C481.281 31.84 480.105 36.256 477.753 40.048C475.449 43.84 472.185 46.792 467.961 48.904C463.785 50.968 458.961 52 453.489 52H430.593V1.6ZM452.913 42.424C457.953 42.424 461.961 41.032 464.937 38.248C467.961 35.416 469.473 31.6 469.473 26.8C469.473 22 467.961 18.208 464.937 15.424C461.961 12.592 457.953 11.176 452.913 11.176H442.257V42.424H452.913ZM527.028 52.864C523.044 52.864 519.18 52.336 515.436 51.28C511.74 50.176 508.764 48.76 506.508 47.032L510.468 38.248C512.628 39.832 515.196 41.104 518.172 42.064C521.148 43.024 524.124 43.504 527.1 43.504C530.412 43.504 532.86 43.024 534.444 42.064C536.028 41.056 536.82 39.736 536.82 38.104C536.82 36.904 536.34 35.92 535.38 35.152C534.468 34.336 533.268 33.688 531.78 33.208C530.34 32.728 528.372 32.2 525.876 31.624C522.036 30.712 518.892 29.8 516.444 28.888C513.996 27.976 511.884 26.512 510.108 24.496C508.38 22.48 507.516 19.792 507.516 16.432C507.516 13.504 508.308 10.864 509.892 8.512C511.476 6.112 513.852 4.216 517.02 2.824C520.236 1.432 524.148 0.735999 528.756 0.735999C531.972 0.735999 535.116 1.12 538.188 1.888C541.26 2.656 543.948 3.76 546.252 5.2L542.652 14.056C537.996 11.416 533.34 10.096 528.684 10.096C525.42 10.096 522.996 10.624 521.412 11.68C519.876 12.736 519.108 14.128 519.108 15.856C519.108 17.584 519.996 18.88 521.772 19.744C523.596 20.56 526.356 21.376 530.052 22.192C533.892 23.104 537.036 24.016 539.484 24.928C541.932 25.84 544.02 27.28 545.748 29.248C547.524 31.216 548.412 33.88 548.412 37.24C548.412 40.12 547.596 42.76 545.964 45.16C544.38 47.512 541.98 49.384 538.764 50.776C535.548 52.168 531.636 52.864 527.028 52.864ZM602.606 1.6V52H590.942V31.336H568.046V52H556.382V1.6H568.046V21.472H590.942V1.6H602.606ZM647.723 41.2H624.323L619.859 52H607.907L630.371 1.6H641.891L664.427 52H652.187L647.723 41.2ZM644.051 32.344L636.059 13.048L628.067 32.344H644.051ZM688.016 32.2L681.248 39.256V52H669.656V1.6H681.248V25.144L703.568 1.6H716.528L695.648 24.064L717.752 52H704.144L688.016 32.2ZM722.953 1.6H734.617V52H722.953V1.6ZM778.69 52L768.97 37.96H768.394H758.242V52H746.578V1.6H768.394C772.858 1.6 776.722 2.344 779.986 3.832C783.298 5.32 785.842 7.432 787.618 10.168C789.394 12.904 790.282 16.144 790.282 19.888C790.282 23.632 789.37 26.872 787.546 29.608C785.77 32.296 783.226 34.36 779.914 35.8L791.218 52H778.69ZM778.474 19.888C778.474 17.056 777.562 14.896 775.738 13.408C773.914 11.872 771.25 11.104 767.746 11.104H758.242V28.672H767.746C771.25 28.672 773.914 27.904 775.738 26.368C777.562 24.832 778.474 22.672 778.474 19.888ZM862.877 52.864C857.741 52.864 853.085 51.76 848.909 49.552C844.781 47.296 841.517 44.2 839.117 40.264C836.765 36.28 835.589 31.792 835.589 26.8C835.589 21.808 836.765 17.344 839.117 13.408C841.517 9.424 844.781 6.328 848.909 4.12C853.085 1.864 857.765 0.735999 862.949 0.735999C867.317 0.735999 871.253 1.504 874.757 3.04C878.309 4.576 881.285 6.784 883.685 9.664L876.197 16.576C872.789 12.64 868.565 10.672 863.525 10.672C860.405 10.672 857.621 11.368 855.173 12.76C852.725 14.104 850.805 16 849.413 18.448C848.069 20.896 847.397 23.68 847.397 26.8C847.397 29.92 848.069 32.704 849.413 35.152C850.805 37.6 852.725 39.52 855.173 40.912C857.621 42.256 860.405 42.928 863.525 42.928C868.565 42.928 872.789 40.936 876.197 36.952L883.685 43.864C881.285 46.792 878.309 49.024 874.757 50.56C871.205 52.096 867.245 52.864 862.877 52.864ZM930.313 32.2L923.545 39.256V52H911.953V1.6H923.545V25.144L945.865 1.6H958.825L937.945 24.064L960.049 52H946.441L930.313 32.2Z" fill="white"/>
<path d="M802.979 52.576C801.011 52.576 799.355 51.904 798.011 50.56C796.667 49.216 795.995 47.536 795.995 45.52C795.995 43.456 796.667 41.8 798.011 40.552C799.355 39.256 801.011 38.608 802.979 38.608C804.947 38.608 806.603 39.256 807.947 40.552C809.291 41.8 809.963 43.456 809.963 45.52C809.963 47.536 809.291 49.216 807.947 50.56C806.603 51.904 804.947 52.576 802.979 52.576Z" fill="#0FC684"/>
</mask>
<g mask="url(#mask0)">
<path d="M389.519 8.9292C171.895 -58.6246 106.083 -37.3719 100.418 -18.3013L206.525 36.6857C358.425 55.581 607.743 76.483 389.819 8.9292Z" fill="#0FC684"/>
</g>
</svg>
