<svg width="80" height="80" viewBox="0 0 80 80" fill="none" xmlns="http://www.w3.org/2000/svg">
<path fill-rule="evenodd" clip-rule="evenodd" d="M50.45 8.35663C49.9971 7.59192 49.2627 7.03498 48.4041 6.80508C47.5456 6.57518 46.6312 6.69061 45.8567 7.12663C45.477 7.34016 45.1438 7.62746 44.8768 7.97165C44.6098 8.31583 44.4144 8.70994 44.3019 9.13079C44.1895 9.55164 44.1624 9.99072 44.2221 10.4222C44.2819 10.8537 44.4274 11.2689 44.65 11.6433L58.7133 35.53L39 16.2033C38.3628 15.5835 37.5089 15.2367 36.62 15.2367C35.7311 15.2367 34.8772 15.5835 34.24 16.2033C33.9283 16.5068 33.6806 16.8696 33.5115 17.2703C33.3424 17.6711 33.2552 18.1016 33.2552 18.5366C33.2552 18.9716 33.3424 19.4022 33.5115 19.803C33.6806 20.2037 33.9283 20.5665 34.24 20.87L54.22 40.4666L30.0667 26.79C29.2922 26.3539 28.3778 26.2385 27.5192 26.4684C26.6607 26.6983 25.9263 27.2553 25.4733 28.02C25.2514 28.3945 25.1065 28.8095 25.0473 29.2408C24.988 29.6721 25.0156 30.1109 25.1283 30.5313C25.241 30.9518 25.4367 31.3455 25.7037 31.6893C25.9708 32.0331 26.3038 32.3201 26.6833 32.5333L51.4567 46.5633L24.21 39.4C23.3523 39.1762 22.4409 39.299 21.6731 39.7419C20.9052 40.1848 20.3425 40.9121 20.1067 41.7666C19.99 42.1876 19.9582 42.6275 20.0132 43.0608C20.0681 43.4941 20.2088 43.9122 20.4268 44.2906C20.6449 44.6691 20.9361 45.0004 21.2834 45.2652C21.6308 45.5301 22.0273 45.7232 22.45 45.8333L51 53.3333H23.3333C22.4493 53.3333 21.6014 53.6845 20.9763 54.3096C20.3512 54.9347 20 55.7826 20 56.6666C20 57.5507 20.3512 58.3985 20.9763 59.0237C21.6014 59.6488 22.4493 60 23.3333 60H56.6667C57.3586 59.9994 58.0332 59.7836 58.597 59.3824C59.1607 58.9812 59.5856 58.4145 59.8128 57.7609C60.0399 57.1073 60.058 56.3992 59.8646 55.7349C59.6712 55.0705 59.2758 54.4828 58.7333 54.0533C59.32 53.62 59.7667 52.9966 59.9733 52.2433C60.0917 51.8133 60.1214 51.3638 60.0607 50.922C59.9999 50.4802 59.85 50.0554 59.62 49.6733C60.2977 49.393 60.8654 48.8991 61.2367 48.2666C61.456 47.8975 61.6003 47.4888 61.6615 47.0638C61.7227 46.6388 61.6996 46.206 61.5933 45.79C62.2767 45.69 62.9367 45.3766 63.4633 44.86C64.0601 44.2791 64.4119 43.492 64.4467 42.66C65.1467 42.7533 65.88 42.6266 66.5367 42.2533C66.9162 42.0401 67.2492 41.7531 67.5163 41.4093C67.7833 41.0655 67.979 40.6718 68.0917 40.2513C68.2044 39.8309 68.232 39.3921 68.1727 38.9608C68.1135 38.5295 67.9686 38.1145 67.7467 37.74L50.4467 8.35663H50.45ZM13.3333 56.6666C13.3333 55.7826 12.9821 54.9347 12.357 54.3096C11.7319 53.6845 10.8841 53.3333 10 53.3333C9.11595 53.3333 8.2681 53.6845 7.64298 54.3096C7.01786 54.9347 6.66667 55.7826 6.66667 56.6666V60C6.66667 63.5362 8.07143 66.9276 10.5719 69.4281C13.0724 71.9285 16.4638 73.3333 20 73.3333H60C63.5362 73.3333 66.9276 71.9285 69.4281 69.4281C71.9286 66.9276 73.3333 63.5362 73.3333 60V56.6666C73.3333 55.7826 72.9822 54.9347 72.357 54.3096C71.7319 53.6845 70.8841 53.3333 70 53.3333C69.116 53.3333 68.2681 53.6845 67.643 54.3096C67.0179 54.9347 66.6667 55.7826 66.6667 56.6666V60C66.6667 61.7681 65.9643 63.4638 64.7141 64.714C63.4638 65.9643 61.7681 66.6666 60 66.6666H20C18.2319 66.6666 16.5362 65.9643 15.286 64.714C14.0357 63.4638 13.3333 61.7681 13.3333 60V56.6666Z" fill="#0FC684"/>
</svg>
